HIERARCHY
ROOT Hips
{
	OFFSET 0.000000 0.000000 0.000000
	CHANNELS 6 Xposition Yposition Zposition Zrotation Yrotation Xrotation 
	JOINT LHipJoint
	{
		OFFSET 0.000000 0.000000 0.000000
		CHANNELS 3 Zrotation Yrotation Xrotation
		JOINT LeftUpLeg
		{
			OFFSET 1.363060 -1.794630 0.839290
			CHANNELS 3 Zrotation Yrotation Xrotation
			JOINT LeftLeg
			{
				OFFSET 2.448110 -6.726130 0.000000
				CHANNELS 3 Zrotation Yrotation Xrotation
				JOINT LeftFoot
				{
					OFFSET 2.562200 -7.039590 0.000000
					CHANNELS 3 Zrotation Yrotation Xrotation
					JOINT LeftToeBase
					{
						OFFSET 0.157640 -0.433110 2.322550
						CHANNELS 3 Zrotation Yrotation Xrotation
						End Site
						{
							OFFSET 0.000000 0.000000 0.000000
						}
					}
				}
			}
		}
	}
	JOINT RHipJoint
	{
		OFFSET 0.000000 0.000000 0.000000
		CHANNELS 3 Zrotation Yrotation Xrotation
		JOINT RightUpLeg
		{
			OFFSET -1.305520 -1.794630 0.839290
			CHANNELS 3 Zrotation Yrotation Xrotation
			JOINT RightLeg
			{
				OFFSET -2.542530 -6.985550 0.000000
				CHANNELS 3 Zrotation Yrotation Xrotation
				JOINT RightFoot
				{
					OFFSET -2.568260 -7.056230 0.000000
					CHANNELS 3 Zrotation Yrotation Xrotation
					JOINT RightToeBase
					{
						OFFSET -0.164730 -0.452590 2.363150
						CHANNELS 3 Zrotation Yrotation Xrotation
						End Site
						{
							OFFSET 0.000000 0.000000 0.000000
						}
					}
				}
			}
		}
	}
	JOINT LowerBack
	{
		OFFSET 0.000000 0.000000 0.000000
		CHANNELS 3 Zrotation Yrotation Xrotation
		JOINT Spine
		{
			OFFSET 0.028270 2.035590 -0.193380
			CHANNELS 3 Zrotation Yrotation Xrotation
			JOINT Spine1
			{
				OFFSET 0.056720 2.048850 -0.042750
				CHANNELS 3 Zrotation Yrotation Xrotation
				JOINT Neck
				{
					OFFSET 0.000000 0.000000 0.000000
					CHANNELS 3 Zrotation Yrotation Xrotation
					JOINT Neck1
					{
						OFFSET -0.054170 1.746240 0.172020
						CHANNELS 3 Zrotation Yrotation Xrotation
						JOINT Head
						{
							OFFSET 0.104070 1.761360 -0.123970
							CHANNELS 3 Zrotation Yrotation Xrotation
							End Site
							{
								OFFSET 0.000000 0.000000 0.000000
							}
						}
					}
				}
				JOINT LeftShoulder
				{
					OFFSET 0.000000 0.000000 0.000000
					CHANNELS 3 Zrotation Yrotation Xrotation
					JOINT LeftArm
					{
						OFFSET 3.362410 1.200890 -0.311210
						CHANNELS 3 Zrotation Yrotation Xrotation
						JOINT LeftForeArm
						{
							OFFSET 4.983000 -0.000000 -0.000000
							CHANNELS 3 Zrotation Yrotation Xrotation
							JOINT LeftHand
							{
								OFFSET 3.483560 -0.000000 -0.000000
								CHANNELS 3 Zrotation Yrotation Xrotation
								JOINT LeftFingerBase
								{
									OFFSET 0.000000 0.000000 0.000000
									CHANNELS 3 Zrotation Yrotation Xrotation
									JOINT LeftHandIndex1
									{
										OFFSET 0.715260 -0.000000 -0.000000
										CHANNELS 3 Zrotation Yrotation Xrotation
										End Site
										{
											OFFSET 0.000000 0.000000 0.000000
										}
									}
								}
								JOINT LThumb
								{
									OFFSET 0.000000 0.000000 0.000000
									CHANNELS 3 Zrotation Yrotation Xrotation
									End Site
									{
										OFFSET 0.000000 0.000000 0.000000
									}
								}
							}
						}
					}
				}
				JOINT RightShoulder
				{
					OFFSET 0.000000 0.000000 0.000000
					CHANNELS 3 Zrotation Yrotation Xrotation
					JOINT RightArm
					{
						OFFSET -3.136600 1.374050 -0.404650
						CHANNELS 3 Zrotation Yrotation Xrotation
						JOINT RightForeArm
						{
							OFFSET -5.241900 -0.000000 -0.000000
							CHANNELS 3 Zrotation Yrotation Xrotation
							JOINT RightHand
							{
								OFFSET -3.444170 -0.000000 -0.000000
								CHANNELS 3 Zrotation Yrotation Xrotation
								JOINT RightFingerBase
								{
									OFFSET 0.000000 0.000000 0.000000
									CHANNELS 3 Zrotation Yrotation Xrotation
									JOINT RightHandIndex1
									{
										OFFSET -0.622530 -0.000000 -0.000000
										CHANNELS 3 Zrotation Yrotation Xrotation
										End Site
										{
											OFFSET 0.000000 0.000000 0.000000
										}
									}
								}
								JOINT RThumb
								{
									OFFSET 0.000000 0.000000 0.000000
									CHANNELS 3 Zrotation Yrotation Xrotation
									End Site
									{
										OFFSET 0.000000 0.000000 0.000000
									}
								}
							}
						}
					}
				}
			}
		}
	}
}
MOTION
Frames: 4
Frame Time: 0.008333
3.093784 16.867632 -1.439211 -169.790376 57.718461 -151.409858 -12.007211 2.618893 3.557427 -9.956114 -10.797534 -5.784913 -1.627082 0.408184 21.633561 -0.072457 -4.158404 -10.457683 0.208700 0.000000 -22.712900 6.561421 -1.203989 4.685130 8.272795 12.314337 -39.467233 3.406991 -0.845982 21.141525 1.374728 8.801338 0.111907 0.931700 0.000000 -46.142200 6.704114 -2.511335 -7.719515 0.597594 -3.290128 -4.104809 -7.722953 -3.135960 0.060329 3.676305 -10.988570 -6.647527 -4.514971 -0.349461 0.208145 0.000000 0.000000 0.000000 10.161689 6.588441 -0.615059 -68.839317 -25.619603 25.123461 -178.236633 -69.603882 179.943687 5.698910 -2.593221 -0.172415 -0.285763 0.824390 -0.000000 0.000000 0.000000 0.000000 0.000000 0.000000 0.000000 6.781153 -6.743957 -0.840308 67.196103 9.310836 -10.740720 179.807284 82.464196 179.991385 0.439910 8.453157 0.044046 -0.103709 -0.577022 0.000000 0.000000 0.000000 0.000000 0.000000 0.000000 0.000000 
3.219859 16.843191 -1.512093 -169.896343 57.227083 -151.727097 -12.052307 2.725327 3.543804 -9.836249 -10.622413 -5.251705 -1.595295 0.480455 22.017729 -0.101111 -4.323973 -9.972215 0.206900 -0.000000 -24.491800 6.581754 -1.199450 4.644808 8.271129 12.607419 -39.574713 3.201651 -1.038939 23.455001 1.180229 7.926118 -1.252235 0.681600 -0.000000 -44.354800 6.801735 -2.593758 -7.720577 0.637178 -3.382708 -4.110945 -7.687304 -3.238061 0.051640 3.487929 -10.964635 -6.703725 -4.546385 -0.351061 0.189195 0.000000 0.000000 0.000000 9.901661 6.688110 -0.568704 -69.238381 -24.819786 25.358180 -178.250274 -69.969459 179.947770 5.424788 -2.590048 -0.163409 -0.275814 0.817889 -0.000000 0.000000 0.000000 0.000000 0.000000 0.000000 0.000000 6.798844 -6.725126 -0.904540 67.450517 9.506213 -10.769873 179.822577 83.072275 179.989560 0.222429 8.500346 0.026727 -0.100542 -0.575100 0.000000 0.000000 0.000000 0.000000 0.000000 0.000000 0.000000 
3.343271 16.823200 -1.587152 -169.964025 56.698581 -152.051433 -12.105511 2.835338 3.521543 -9.678320 -10.419257 -4.694965 -1.550863 0.560329 22.388825 -0.128426 -4.461612 -9.320910 0.191800 -0.000000 -26.701199 6.602624 -1.195562 4.568054 8.364537 12.765612 -39.503089 3.024320 -1.205744 25.552096 0.990348 7.106548 -2.552869 0.480200 0.000000 -43.199599 6.911082 -2.678112 -7.676261 0.680188 -3.477263 -4.111370 -7.646310 -3.343161 0.033091 3.328267 -10.940440 -6.744695 -4.571499 -0.352275 0.174710 0.000000 0.000000 0.000000 9.607392 6.771901 -0.522447 -69.698810 -23.951010 25.593745 -178.284480 -70.480371 179.951656 5.164360 -2.574260 -0.154222 -0.265072 0.809303 -0.000000 0.000000 0.000000 0.000000 0.000000 0.000000 0.000000 6.831875 -6.710251 -0.969947 67.701836 9.722726 -10.731869 179.836737 83.721268 179.987824 0.012125 8.549328 0.009803 -0.097291 -0.572790 0.000000 0.000000 0.000000 0.000000 0.000000 0.000000 0.000000 
3.464016 16.808124 -1.664134 -169.986456 56.129984 -152.372047 -12.168618 2.948163 3.488825 -9.471014 -10.171350 -4.137402 -1.494425 0.647331 22.763931 -0.152913 -4.573811 -8.527993 0.163201 -0.000000 -29.204700 6.619368 -1.199113 4.462047 8.562444 12.796181 -39.234000 2.883185 -1.340990 27.341292 0.810545 6.348534 -3.750544 0.324500 0.000000 -42.673400 7.034299 -2.762014 -7.591050 0.726115 -3.571762 -4.107129 -7.602707 -3.449066 0.004135 3.201484 -10.916262 -6.769083 -4.590873 -0.353172 0.165206 0.000000 0.000000 0.000000 9.280729 6.833219 -0.477196 -70.205460 -23.016376 25.815011 -178.341070 -71.134961 179.955161 4.929775 -2.539922 -0.144956 -0.253880 0.798469 -0.000000 0.000000 0.000000 0.000000 0.000000 0.000000 0.000000 6.886319 -6.699722 -1.035236 67.947290 9.951541 -10.629133 179.849610 84.402884 179.986185 -0.193592 8.593497 -0.007026 -0.093850 -0.569990 0.000000 0.000000 0.000000 0.000000 0.000000 0.000000 0.000000 
